<mxfile host="Electron" agent="Mozilla/5.0 (Windows NT 10.0; Win64; x64) AppleWebKit/537.36 (KHTML, like Gecko) draw.io/26.0.3 Chrome/130.0.6723.137 Electron/33.2.1 Safari/537.36" version="26.0.3">
  <diagram name="Pagina-1" id="NIEVhTomtK5O_smgwjYA">
    <mxGraphModel dx="1074" dy="522" grid="1" gridSize="10" guides="1" tooltips="1" connect="1" arrows="1" fold="1" page="1" pageScale="1" pageWidth="827" pageHeight="1169" math="0" shadow="0">
      <root>
        <mxCell id="0" />
        <mxCell id="1" parent="0" />
        <mxCell id="bGZ8eXu-XVwljQqfqv30-22" value="" style="shape=umlLifeline;perimeter=lifelinePerimeter;whiteSpace=wrap;html=1;container=1;dropTarget=0;collapsible=0;recursiveResize=0;outlineConnect=0;portConstraint=eastwest;newEdgeStyle={&quot;curved&quot;:0,&quot;rounded&quot;:0};participant=umlActor;" vertex="1" parent="1">
          <mxGeometry x="70" y="50" width="25" height="420" as="geometry" />
        </mxCell>
        <mxCell id="bGZ8eXu-XVwljQqfqv30-23" value="" style="html=1;points=[[0,0,0,0,5],[0,1,0,0,-5],[1,0,0,0,5],[1,1,0,0,-5]];perimeter=orthogonalPerimeter;outlineConnect=0;targetShapes=umlLifeline;portConstraint=eastwest;newEdgeStyle={&quot;curved&quot;:0,&quot;rounded&quot;:0};" vertex="1" parent="bGZ8eXu-XVwljQqfqv30-22">
          <mxGeometry x="7.5" y="50" width="10" height="330" as="geometry" />
        </mxCell>
        <mxCell id="bGZ8eXu-XVwljQqfqv30-24" value="film:Film" style="shape=umlLifeline;perimeter=lifelinePerimeter;whiteSpace=wrap;html=1;container=1;dropTarget=0;collapsible=0;recursiveResize=0;outlineConnect=0;portConstraint=eastwest;newEdgeStyle={&quot;curved&quot;:0,&quot;rounded&quot;:0};" vertex="1" parent="1">
          <mxGeometry x="640" y="50" width="100" height="300" as="geometry" />
        </mxCell>
        <mxCell id="bGZ8eXu-XVwljQqfqv30-25" value="" style="html=1;points=[[0,0,0,0,5],[0,1,0,0,-5],[1,0,0,0,5],[1,1,0,0,-5]];perimeter=orthogonalPerimeter;outlineConnect=0;targetShapes=umlLifeline;portConstraint=eastwest;newEdgeStyle={&quot;curved&quot;:0,&quot;rounded&quot;:0};" vertex="1" parent="bGZ8eXu-XVwljQqfqv30-24">
          <mxGeometry x="45" y="90" width="10" height="90" as="geometry" />
        </mxCell>
        <mxCell id="bGZ8eXu-XVwljQqfqv30-26" value=":Film_Control" style="shape=umlLifeline;perimeter=lifelinePerimeter;whiteSpace=wrap;html=1;container=1;dropTarget=0;collapsible=0;recursiveResize=0;outlineConnect=0;portConstraint=eastwest;newEdgeStyle={&quot;curved&quot;:0,&quot;rounded&quot;:0};" vertex="1" parent="1">
          <mxGeometry x="370" y="50" width="110" height="420" as="geometry" />
        </mxCell>
        <mxCell id="bGZ8eXu-XVwljQqfqv30-27" value="" style="html=1;points=[[0,0,0,0,5],[0,1,0,0,-5],[1,0,0,0,5],[1,1,0,0,-5]];perimeter=orthogonalPerimeter;outlineConnect=0;targetShapes=umlLifeline;portConstraint=eastwest;newEdgeStyle={&quot;curved&quot;:0,&quot;rounded&quot;:0};" vertex="1" parent="bGZ8eXu-XVwljQqfqv30-26">
          <mxGeometry x="50" y="80" width="10" height="300" as="geometry" />
        </mxCell>
        <mxCell id="bGZ8eXu-XVwljQqfqv30-28" value=":Catalogo_Boundary" style="shape=umlLifeline;perimeter=lifelinePerimeter;whiteSpace=wrap;html=1;container=1;dropTarget=0;collapsible=0;recursiveResize=0;outlineConnect=0;portConstraint=eastwest;newEdgeStyle={&quot;curved&quot;:0,&quot;rounded&quot;:0};" vertex="1" parent="1">
          <mxGeometry x="150" y="50" width="120" height="470" as="geometry" />
        </mxCell>
        <mxCell id="bGZ8eXu-XVwljQqfqv30-29" value="" style="html=1;points=[[0,0,0,0,5],[0,1,0,0,-5],[1,0,0,0,5],[1,1,0,0,-5]];perimeter=orthogonalPerimeter;outlineConnect=0;targetShapes=umlLifeline;portConstraint=eastwest;newEdgeStyle={&quot;curved&quot;:0,&quot;rounded&quot;:0};" vertex="1" parent="bGZ8eXu-XVwljQqfqv30-28">
          <mxGeometry x="55" y="50" width="10" height="330" as="geometry" />
        </mxCell>
        <mxCell id="bGZ8eXu-XVwljQqfqv30-30" value="" style="shape=umlDestroy;whiteSpace=wrap;html=1;strokeWidth=3;targetShapes=umlLifeline;" vertex="1" parent="bGZ8eXu-XVwljQqfqv30-28">
          <mxGeometry x="45" y="360" width="30" height="30" as="geometry" />
        </mxCell>
        <mxCell id="bGZ8eXu-XVwljQqfqv30-31" value="clickFilm()" style="html=1;verticalAlign=bottom;endArrow=block;curved=0;rounded=0;" edge="1" parent="1" target="bGZ8eXu-XVwljQqfqv30-29">
          <mxGeometry x="-0.1304" width="80" relative="1" as="geometry">
            <mxPoint x="90" y="130" as="sourcePoint" />
            <mxPoint x="170" y="130" as="targetPoint" />
            <mxPoint as="offset" />
          </mxGeometry>
        </mxCell>
        <mxCell id="bGZ8eXu-XVwljQqfqv30-32" value="viewFilm(filmName, user)" style="html=1;verticalAlign=bottom;endArrow=block;curved=0;rounded=0;" edge="1" parent="1" source="bGZ8eXu-XVwljQqfqv30-29" target="bGZ8eXu-XVwljQqfqv30-27">
          <mxGeometry width="80" relative="1" as="geometry">
            <mxPoint x="240" y="140" as="sourcePoint" />
            <mxPoint x="310" y="130" as="targetPoint" />
            <Array as="points">
              <mxPoint x="260" y="140" />
            </Array>
          </mxGeometry>
        </mxCell>
        <mxCell id="bGZ8eXu-XVwljQqfqv30-33" value=":Catalogo" style="shape=umlLifeline;perimeter=lifelinePerimeter;whiteSpace=wrap;html=1;container=1;dropTarget=0;collapsible=0;recursiveResize=0;outlineConnect=0;portConstraint=eastwest;newEdgeStyle={&quot;curved&quot;:0,&quot;rounded&quot;:0};" vertex="1" parent="1">
          <mxGeometry x="515" y="50" width="100" height="300" as="geometry" />
        </mxCell>
        <mxCell id="bGZ8eXu-XVwljQqfqv30-34" value="" style="html=1;points=[[0,0,0,0,5],[0,1,0,0,-5],[1,0,0,0,5],[1,1,0,0,-5]];perimeter=orthogonalPerimeter;outlineConnect=0;targetShapes=umlLifeline;portConstraint=eastwest;newEdgeStyle={&quot;curved&quot;:0,&quot;rounded&quot;:0};" vertex="1" parent="bGZ8eXu-XVwljQqfqv30-33">
          <mxGeometry x="45" y="80" width="10" height="50" as="geometry" />
        </mxCell>
        <mxCell id="bGZ8eXu-XVwljQqfqv30-35" value="getFilm(filmName)" style="html=1;verticalAlign=bottom;endArrow=block;curved=0;rounded=0;" edge="1" parent="1" target="bGZ8eXu-XVwljQqfqv30-34">
          <mxGeometry width="80" relative="1" as="geometry">
            <mxPoint x="430" y="150" as="sourcePoint" />
            <mxPoint x="555" y="150" as="targetPoint" />
          </mxGeometry>
        </mxCell>
        <mxCell id="bGZ8eXu-XVwljQqfqv30-36" value="film" style="html=1;verticalAlign=bottom;endArrow=open;dashed=1;endSize=8;curved=0;rounded=0;" edge="1" parent="1" source="bGZ8eXu-XVwljQqfqv30-34">
          <mxGeometry relative="1" as="geometry">
            <mxPoint x="575" y="170" as="sourcePoint" />
            <mxPoint x="430" y="170" as="targetPoint" />
          </mxGeometry>
        </mxCell>
        <mxCell id="bGZ8eXu-XVwljQqfqv30-37" value="getRecensioniFilm()" style="html=1;verticalAlign=bottom;endArrow=block;curved=0;rounded=0;" edge="1" parent="1" target="bGZ8eXu-XVwljQqfqv30-25">
          <mxGeometry width="80" relative="1" as="geometry">
            <mxPoint x="430" y="199.72" as="sourcePoint" />
            <mxPoint x="575" y="199.72" as="targetPoint" />
          </mxGeometry>
        </mxCell>
        <mxCell id="bGZ8eXu-XVwljQqfqv30-38" value="recensioni" style="html=1;verticalAlign=bottom;endArrow=open;dashed=1;endSize=8;curved=0;rounded=0;" edge="1" parent="1">
          <mxGeometry relative="1" as="geometry">
            <mxPoint x="685.0000000000002" y="219.72" as="sourcePoint" />
            <mxPoint x="430" y="219.72" as="targetPoint" />
          </mxGeometry>
        </mxCell>
        <mxCell id="bGZ8eXu-XVwljQqfqv30-39" value=":Film_Boundary" style="shape=umlLifeline;perimeter=lifelinePerimeter;whiteSpace=wrap;html=1;container=1;dropTarget=0;collapsible=0;recursiveResize=0;outlineConnect=0;portConstraint=eastwest;newEdgeStyle={&quot;curved&quot;:0,&quot;rounded&quot;:0};" vertex="1" parent="1">
          <mxGeometry x="920" y="380" width="100" height="300" as="geometry" />
        </mxCell>
        <mxCell id="bGZ8eXu-XVwljQqfqv30-40" value="" style="html=1;points=[[0,0,0,0,5],[0,1,0,0,-5],[1,0,0,0,5],[1,1,0,0,-5]];perimeter=orthogonalPerimeter;outlineConnect=0;targetShapes=umlLifeline;portConstraint=eastwest;newEdgeStyle={&quot;curved&quot;:0,&quot;rounded&quot;:0};" vertex="1" parent="bGZ8eXu-XVwljQqfqv30-39">
          <mxGeometry x="45" y="50" width="10" height="80" as="geometry" />
        </mxCell>
        <mxCell id="bGZ8eXu-XVwljQqfqv30-41" value="CreateFilm(film, recensioni, valutazioni)" style="endArrow=open;endSize=12;dashed=1;html=1;rounded=0;" edge="1" parent="1" source="bGZ8eXu-XVwljQqfqv30-27">
          <mxGeometry y="10" width="160" relative="1" as="geometry">
            <mxPoint x="440" y="400" as="sourcePoint" />
            <mxPoint x="920" y="400" as="targetPoint" />
            <mxPoint as="offset" />
          </mxGeometry>
        </mxCell>
        <mxCell id="bGZ8eXu-XVwljQqfqv30-42" value="Utente&lt;br&gt;Recensore" style="text;html=1;align=center;verticalAlign=middle;whiteSpace=wrap;rounded=0;" vertex="1" parent="1">
          <mxGeometry x="52.5" y="20" width="60" height="30" as="geometry" />
        </mxCell>
        <mxCell id="bGZ8eXu-XVwljQqfqv30-44" value="user:Utente_Recensore" style="shape=umlLifeline;perimeter=lifelinePerimeter;whiteSpace=wrap;html=1;container=1;dropTarget=0;collapsible=0;recursiveResize=0;outlineConnect=0;portConstraint=eastwest;newEdgeStyle={&quot;curved&quot;:0,&quot;rounded&quot;:0};" vertex="1" parent="1">
          <mxGeometry x="760" y="50" width="160" height="300" as="geometry" />
        </mxCell>
        <mxCell id="bGZ8eXu-XVwljQqfqv30-45" value="" style="html=1;points=[[0,0,0,0,5],[0,1,0,0,-5],[1,0,0,0,5],[1,1,0,0,-5]];perimeter=orthogonalPerimeter;outlineConnect=0;targetShapes=umlLifeline;portConstraint=eastwest;newEdgeStyle={&quot;curved&quot;:0,&quot;rounded&quot;:0};" vertex="1" parent="bGZ8eXu-XVwljQqfqv30-44">
          <mxGeometry x="75" y="185" width="10" height="80" as="geometry" />
        </mxCell>
        <mxCell id="bGZ8eXu-XVwljQqfqv30-46" value="getValutazioni(recensioni)" style="html=1;verticalAlign=bottom;endArrow=block;curved=0;rounded=0;" edge="1" parent="1" source="bGZ8eXu-XVwljQqfqv30-27" target="bGZ8eXu-XVwljQqfqv30-45">
          <mxGeometry width="80" relative="1" as="geometry">
            <mxPoint x="760" y="300" as="sourcePoint" />
            <mxPoint x="840" y="300" as="targetPoint" />
            <Array as="points">
              <mxPoint x="780" y="260" />
            </Array>
          </mxGeometry>
        </mxCell>
        <mxCell id="bGZ8eXu-XVwljQqfqv30-47" value="valutazioni" style="html=1;verticalAlign=bottom;endArrow=open;dashed=1;endSize=8;curved=0;rounded=0;" edge="1" parent="1">
          <mxGeometry relative="1" as="geometry">
            <mxPoint x="835" y="300" as="sourcePoint" />
            <mxPoint x="430" y="300" as="targetPoint" />
          </mxGeometry>
        </mxCell>
      </root>
    </mxGraphModel>
  </diagram>
</mxfile>
